<svg width="33" height="32" viewBox="0 0 33 32" fill="none" xmlns="http://www.w3.org/2000/svg">
<rect x="0.40918" y="-0.000488281" width="32" height="32" rx="16" fill="#3B3C4E"/>
<path fill-rule="evenodd" clip-rule="evenodd" d="M24.7058 11.8511H8.11275C7.54029 11.8511 7.07568 12.3157 7.07568 12.8881V14.9623C7.07568 15.5347 7.54029 15.9993 8.11275 15.9993H24.7058C25.2783 15.9993 25.7429 15.5347 25.7429 14.9623V12.8881C25.7429 12.3157 25.2783 11.8511 24.7058 11.8511Z" stroke="#E33319" stroke-linecap="round" stroke-linejoin="round"/>
<path d="M16.4092 25.3329V11.8511" stroke="#E33319" stroke-linecap="round" stroke-linejoin="round"/>
<path d="M20.2425 10.4116C19.1246 11.5752 17.3647 11.8511 16.5122 11.8511" stroke="#E33319" stroke-linecap="round" stroke-linejoin="round"/>
<path d="M16.5121 11.8509C16.5121 11.8509 15.9998 8.61945 17.2598 7.30859" stroke="#E33319" stroke-linecap="round" stroke-linejoin="round"/>
<path d="M20.2423 10.4114C21.0657 9.55476 21.0657 8.16509 20.2423 7.30848C19.4189 6.45186 18.0842 6.45186 17.2607 7.30848" stroke="#E33319" stroke-linecap="round" stroke-linejoin="round"/>
<path d="M12.5767 10.4116C13.6946 11.5752 15.4545 11.8511 16.307 11.8511" stroke="#E33319" stroke-linecap="round" stroke-linejoin="round"/>
<path d="M16.3067 11.8509C16.3067 11.8509 16.819 8.61945 15.559 7.30859" stroke="#E33319" stroke-linecap="round" stroke-linejoin="round"/>
<path d="M12.5766 10.4114C11.7531 9.55476 11.7531 8.16509 12.5766 7.30848C13.4 6.45186 14.7347 6.45186 15.5581 7.30848" stroke="#E33319" stroke-linecap="round" stroke-linejoin="round"/>
<path d="M23.6688 15.999V24.2956C23.6688 24.868 23.2042 25.3326 22.6318 25.3326H10.187C9.61451 25.3326 9.1499 24.868 9.1499 24.2956V15.999" stroke="#E33319" stroke-linecap="round" stroke-linejoin="round"/>
</svg>
