<svg width="33" height="32" viewBox="0 0 33 32" fill="none" xmlns="http://www.w3.org/2000/svg">
<path d="M1.74268 15.9997C1.74268 24.0998 8.30917 30.6663 16.4093 30.6663C24.5095 30.6663 31.076 24.0998 31.076 15.9997C31.076 7.8995 24.5095 1.33301 16.4093 1.33301C8.30917 1.33301 1.74268 7.8995 1.74268 15.9997Z" fill="#3B3C4E"/>
<g clip-path="url(#clip0_108_26327)">
<path d="M20.1913 24.2665C19.411 24.2665 18.7471 23.7147 18.584 22.9515C18.5025 22.5406 18.4093 22.0474 18.3045 21.4956C18.025 19.9105 17.5125 19.3 16.406 19.253H15.253V18.1259H16.5108C17.8153 18.1259 18.6423 17.257 18.6423 15.9303C18.6423 14.4274 17.7571 13.7699 16.4759 13.7699C16.243 13.7699 14.7172 13.7699 12.9585 13.7699V23.5973C12.9585 23.9025 12.7139 24.1374 12.4227 24.1374C12.1199 24.1374 11.887 23.8908 11.887 23.5973V13.7699C10.5243 13.7699 9.14991 13.7699 8.21814 13.7699C7.5892 13.7699 7.08838 13.265 7.08838 12.631C7.08838 12.631 9.51097 12.631 11.887 12.631V11.2573C11.8753 8.72121 13.5758 6.6665 15.6606 6.6665H19.1547C19.4576 6.6665 19.6905 6.91307 19.6905 7.2066C19.6905 7.50013 19.4459 7.74669 19.1547 7.74669H15.6606C14.1698 7.74669 12.9468 9.32001 12.9468 11.2573V12.6075C14.6124 12.6075 16.0566 12.6075 16.3827 12.6075C17.6756 12.6075 18.5258 12.9128 19.1198 13.5586C19.5857 14.0634 19.8536 14.8501 19.8536 15.7542C19.8536 17.2688 19.0616 18.2903 18.0716 18.7012V18.7482C18.7937 19.0534 19.2246 19.8871 19.4576 21.0847C19.609 21.8948 19.7487 22.5758 19.8652 23.1041C19.9933 23.6442 20.0981 24.0317 20.1913 24.2665Z" fill="#E33319"/>
<path d="M22.9164 15.8835V16.3179C22.9164 16.5175 22.7533 16.6819 22.5553 16.6819H22.1477C21.9497 16.6819 21.7866 16.5175 21.7866 16.3179V15.8835C21.7866 15.6839 21.9497 15.5195 22.1477 15.5195H22.5553C22.765 15.5195 22.9164 15.6839 22.9164 15.8835ZM22.8931 18.3492V23.844C22.8931 24.0436 22.73 24.208 22.532 24.208H22.1826C21.9846 24.208 21.8216 24.0436 21.8216 23.844V18.3492C21.8216 18.1496 21.9846 17.9852 22.1826 17.9852H22.532C22.7417 17.9852 22.8931 18.1496 22.8931 18.3492Z" fill="#E33319"/>
</g>
<defs>
<clipPath id="clip0_108_26327">
<rect width="15.84" height="17.6" fill="white" transform="translate(7.07617 6.6665)"/>
</clipPath>
</defs>
</svg>
