<svg width="832" height="291" viewBox="0 0 832 291" fill="none" xmlns="http://www.w3.org/2000/svg">
<path d="M20.451 254.404L1 220.736V290.5H831V46.2553L814.646 3.96023C813.866 1.94319 811.625 0.911255 809.585 1.63051L779.611 12.2015C778.431 12.6175 777.514 13.5615 777.132 14.7527L743.549 119.519C743.332 120.198 742.937 120.806 742.405 121.281L708.205 151.837C707.876 152.13 707.599 152.475 707.383 152.858L691.421 181.231C689.902 183.931 686.023 183.954 684.472 181.273L673.188 161.763L642.032 104.231C640.551 101.496 636.653 101.423 635.071 104.101L603.71 157.189C603.349 157.801 602.831 158.305 602.21 158.65L569.544 176.82C568.949 177.151 568.28 177.324 567.599 177.324H534.984C533.534 177.324 532.198 178.109 531.491 179.374L499.234 237.145C498.827 237.875 498.201 238.459 497.444 238.814L465.079 254.033C463.846 254.613 462.402 254.525 461.248 253.8L429.473 233.821C428.886 233.452 428.406 232.937 428.078 232.327L411.03 200.581C409.879 198.439 407.1 197.81 405.14 199.248L398.977 203.769C396.654 205.473 393.346 204.236 392.71 201.426L361.007 61.2931C360.179 57.634 355.223 57.0249 353.534 60.3746L325.773 115.425C324.8 117.354 322.471 118.162 320.513 117.25L305.736 110.371C304.814 109.942 304.09 109.178 303.711 108.234L286.917 66.3783C286.674 65.7729 286.287 65.2361 285.789 64.8147L271.625 52.8262C270.027 51.4743 267.658 51.582 266.19 53.0731L258.418 60.9666C256.362 63.0556 252.831 62.2957 251.816 59.5457L234.57 12.8345C234.373 12.3023 234.066 11.8179 233.667 11.4136L224.871 2.47923C222.6 0.172317 218.672 1.37848 218.087 4.56252L198.764 109.703L185.52 171.73C184.855 174.845 180.992 175.971 178.757 173.701L169.226 164.021C167.039 161.799 163.264 162.823 162.498 165.845L151.679 208.581C150.825 211.955 146.367 212.704 144.457 209.794L132.043 190.881C130.782 188.96 128.166 188.494 126.319 189.862L114.468 198.639C114.118 198.898 113.813 199.212 113.564 199.57L94.5262 226.963C94.3182 227.263 94.1521 227.589 94.0325 227.933L80.1247 267.957C79.6834 269.227 78.6337 270.19 77.3307 270.521L61.2719 274.599C60.3517 274.832 59.3941 274.387 58.98 273.533L46.0241 246.803C44.9278 244.541 42.0415 243.839 40.0288 245.345L26.3104 255.606C24.3915 257.041 21.6498 256.479 20.451 254.404Z" fill="url(#paint0_linear_1_31909)" stroke="#1AEFAF"/>
<defs>
<linearGradient id="paint0_linear_1_31909" x1="419.948" y1="-3" x2="419.948" y2="290.5" gradientUnits="userSpaceOnUse">
<stop stop-color="#53F3C3" stop-opacity="0.6"/>
<stop offset="1" stop-color="#53F3C3" stop-opacity="0"/>
</linearGradient>
</defs>
</svg>
